<svg width="863" height="826.71426" xmlns="http://www.w3.org/2000/svg">
 <title>laravel and vue</title>

 <g>
  <title>background</title>
  <rect x="-1" y="-1" width="865" height="828.71426" id="canvas_background" fill="none"/>
 </g>
 <g>
  <title>Layer 1</title>
  <path d="m740.08458,309.38682c-44.91639,-176.62144 -200.11665,-304.11743 -382.28818,-309.23118c-96.30863,-2.70351 -197.65219,29.23779 -271.43777,141.01198c-131.89969,199.80845 8.10555,337.88223 105.7135,403.49213a610.75776,610.75776 0 0 1 126.24112,113.4651c65.931,78.23772 192.76719,175.45908 343.82337,23.12816c109.48571,-110.40964 107.86671,-254.21888 77.94796,-371.86619z" fill="#f2f2f2" id="svg_1"/>
  <path d="m862,702.71426c0,43.35436 -189.18913,124 -427.5,124s-434.5,-75.64564 -434.5,-119s196.18913,-38 434.5,-38s427.5,-10.35435 427.5,33z" fill="#3f3d56" id="svg_2"/>
  <path d="m862,702.71426c0,43.35436 -189.18913,124 -427.5,124s-434.5,-75.64564 -434.5,-119s196.18913,-38 434.5,-38s427.5,-10.35435 427.5,33z" opacity="0.1" id="svg_3"/>
  <ellipse cx="431.5" cy="707.21426" rx="431.5" ry="78.5" fill="#3f3d56" id="svg_4"/>
  <polygon points="594.859 440.238 594.859 650.182 629.976 707.413 632.649 711.766 771.212 711.766 774.011 440.238 594.859 440.238" fill="#2f2e41" id="svg_5"/>
  <polygon points="594.859 440.238 594.859 650.182 629.976 707.413 632.131 440.238 594.859 440.238" opacity="0.1" id="svg_6"/>
  <polygon points="260.348 434.639 260.348 644.583 225.231 701.814 222.558 706.167 83.994 706.167 81.195 434.639 260.348 434.639" fill="#2f2e41" id="svg_7"/>
  <polygon points="260.348 434.639 260.348 644.583 225.231 701.814 223.075 434.639 260.348 434.639" opacity="0.1" id="svg_8"/>
  <polygon points="816 430.44 816 443.037 63 443.037 63 424.842 132.981 388.452 754.416 388.452 816 430.44" fill="#2f2e41" id="svg_9"/>
  <polygon points="816 430.44 816 443.037 63 443.037 63 424.842 816 430.44" opacity="0.1" id="svg_10"/>
  <polygon points="170.771 493.424 137.18 493.424 123.184 483.626 186.167 483.626 170.771 493.424" opacity="0.1" id="svg_11"/>
  <polygon points="170.771 534.013 137.18 534.013 123.184 524.215 186.167 524.215 170.771 534.013" opacity="0.1" id="svg_12"/>
  <polygon points="170.771 591.398 137.18 591.398 123.184 581.6 186.167 581.6 170.771 591.398" opacity="0.1" id="svg_13"/>
  <polygon points="170.771 648.782 137.18 648.782 123.184 638.985 186.167 638.985 170.771 648.782" opacity="0.1" id="svg_14"/>
  <polygon points="684.435 499.022 718.026 499.022 732.022 489.225 669.039 489.225 684.435 499.022" opacity="0.1" id="svg_15"/>
  <polygon points="684.435 539.611 718.026 539.611 732.022 529.814 669.039 529.814 684.435 539.611" opacity="0.1" id="svg_16"/>
  <polygon points="684.435 596.996 718.026 596.996 732.022 587.199 669.039 587.199 684.435 596.996" opacity="0.1" id="svg_17"/>
  <polygon points="684.435 654.381 718.026 654.381 732.022 644.583 669.039 644.583 684.435 654.381" opacity="0.1" id="svg_18"/>
  <path d="m532.51569,353.42658l-4.66869,29.80755s-22.98411,12.2103 -6.8234,12.56943s92.29556,0 92.29556,0s14.72419,0 -8.619,-12.92856l-4.66865,-31.244l-67.51582,1.79558z" fill="#3f3d56" id="svg_19"/>
  <path d="m517.77261,395.48013a63.5688,63.5688 0 0 1 10.07442,-6.66854l4.66865,-29.80753l67.51582,0.06351l4.66865,29.38488a61.30417,61.30417 0 0 1 10.78841,7.09889c2.99811,-0.68405 6.2745,-3.22612 -10.78841,-12.67635l-4.66865,-31.244l-67.51582,1.79564l-4.66868,29.8075s-19.31337,10.26151 -10.07439,12.246z" opacity="0.1" id="svg_20"/>
  <rect x="413.82432" y="145.67179" width="304.18032" height="211.88475" rx="10.6948" fill="#3f3d56" id="svg_21"/>
  <rect x="424.05943" y="156.98428" width="283.71009" height="158.734" fill="#f2f2f2" id="svg_22"/>
  <circle cx="565.91447" cy="151.9565" r="1.79563" fill="#f2f2f2" id="svg_23"/>
  <path d="m718.00463,328.28771l0,18.574a10.69346,10.69346 0 0 1 -10.6948,10.69481l-282.79071,0a10.69346,10.69346 0 0 1 -10.6948,-10.69481l0,-18.574l304.18031,0z" fill="#3f3d56" id="svg_24"/>
  <circle cx="565.91447" cy="343.01191" r="6.82341" fill="#f2f2f2" id="svg_25"/>
  <polygon points="555.281 415.196 555.281 418.788 362.071 418.788 362.071 415.915 362.337 415.196 367.099 402.268 551.331 402.268 555.281 415.196" fill="#3f3d56" id="svg_26"/>
  <path d="m629.63506,411.68051c-0.35194,1.50472 -1.68071,3.09212 -4.683,4.59324c-10.77381,5.3869 -32.68053,-1.4365 -32.68053,-1.4365s-16.879,-2.873 -16.879,-10.41468a13.46778,13.46778 0 0 1 1.4796,-0.87984c4.52961,-2.3964 19.54831,-8.3097 46.17806,0.25038a11.10594,11.10594 0 0 1 5.06187,3.31716a5.29644,5.29644 0 0 1 1.523,4.57024z" fill="#3f3d56" id="svg_27"/>
  <path d="m629.63506,411.68051c-13.18712,5.05294 -24.94133,5.43 -37.00441,-2.94842c-6.0836,-4.22333 -11.61057,-5.2684 -15.75848,-5.18936c4.52961,-2.3964 19.54831,-8.3097 46.17806,0.25038a11.10594,11.10594 0 0 1 5.06187,3.31716a5.29644,5.29644 0 0 1 1.52296,4.57024z" opacity="0.1" id="svg_28"/>
  <ellipse cx="613.10087" cy="407.29559" rx="4.66865" ry="1.43651" fill="#f2f2f2" id="svg_29"/>
  <polygon points="555.281 415.196 555.281 418.788 362.071 418.788 362.071 415.915 362.337 415.196 555.281 415.196" opacity="0.1" id="svg_30"/>
  <path d="m665.69367,231.95129c-1.52438,-1.52439 -21.08732,-26.1686 -24.39014,-30.23362c-3.55691,-4.065 -5.08129,-3.30284 -7.36787,-3.04877s-26.93078,4.57315 -29.72549,4.82721c-2.7947,0.50813 -4.57315,1.52439 -2.7947,4.065c1.52438,2.28657 17.78447,25.15234 21.34137,30.48768l-64.78633,15.4979l-51.32094,-86.1277c-2.03251,-3.04877 -2.54064,-4.065 -7.11379,-3.811s-40.39618,3.30283 -42.93682,3.30283c-2.54064,0.25407 -5.33535,1.27032 -2.79471,7.36786s43.19089,93.49557 44.20714,96.03621s4.065,6.60566 10.92475,5.08128c7.1138,-1.77845 31.504,-8.13 44.96934,-11.68694c7.11379,12.7032 21.34138,38.61773 24.13609,42.42869c3.5569,5.08128 6.09754,4.065 11.43288,2.54064c4.31909,-1.27032 66.56478,-23.62795 69.35948,-24.89827s4.57316,-2.03251 2.54064,-4.82722c-1.52438,-2.03251 -17.78448,-24.13609 -26.42267,-35.569c5.84349,-1.52438 26.93079,-7.11379 29.21737,-7.876c2.54064,-0.76219 3.04876,-2.03251 1.52438,-3.5569l0.00002,0.00012zm-117.63167,24.13608c-0.76219,0.25406 -37.09335,8.89225 -38.8718,9.40038c-2.03251,0.50813 -2.03251,0.25406 -2.03251,-0.50813c-0.50813,-0.76219 -43.19088,-89.17648 -43.95307,-90.19274c-0.50813,-1.01626 -0.50813,-2.03251 0,-2.03251s34.29863,-3.04877 35.31488,-3.04877c1.27032,0 1.01626,0.25406 1.52439,1.01625c0,0 47.51,82.06268 48.27216,83.333c1.01626,1.27032 0.50813,1.77845 -0.25406,2.03251l0.00001,0.00001zm102.13375,19.05481c0.50812,1.01626 1.27032,1.52438 -0.7622,2.03251c-1.77844,0.76219 -61.22943,20.83325 -62.49975,21.34137s-2.03251,0.76219 -3.5569,-1.52438s-20.83326,-35.569 -20.83326,-35.569l63.26194,-16.51416c1.52438,-0.50813 2.03252,-0.76219 3.04876,0.76219c1.01626,1.77845 20.83325,28.70924 21.34139,29.47144l0.00002,0.00003zm4.065,-44.71527c-1.52438,0.25406 -24.64421,6.09753 -24.64421,6.09753l-19.0548,-25.91453c-0.50813,-0.76219 -1.01626,-1.52439 0.25406,-1.77845s22.86576,-4.065 23.882,-4.31909s1.77844,-0.50813 3.04876,1.27032c1.27032,1.52438 17.53043,22.35763 18.29261,23.11982s-0.25406,1.27033 -1.77844,1.52439l0.00002,0.00001z" fill="#fb503b" id="svg_31"/>
  <circle cx="394.63903" cy="155.89453" r="38.24668" fill="#ffb9b9" id="svg_32"/>
  <path d="m366.45727,175.01786l0,60.38949l62.40247,0s-8.05193,-50.32457 -4.026,-65.42194l-58.37647,5.03245z" fill="#ffb9b9" id="svg_33"/>
  <path d="m490.25572,256.54367s-59.383,-29.18825 -59.383,-31.20123s-6.03894,-15.09737 -10.06491,-15.09737s-38.24668,-11.07141 -57.37,5.03245l-2.013,13.08439l-73.47387,48.31159l20.12983,73.47388s13.08438,14.09088 9.05842,24.1558s3.01947,61.396 3.01947,61.396l158.01916,-5.03245l0,-68.44145s5.03246,-16.10387 8.05194,-21.13632s0,-20.12983 0,-20.12983l24.15579,-30.19475s-3.01947,-28.18176 -20.12983,-34.22071z" fill="#d0cde1" id="svg_34"/>
  <path d="m290.46717,301.33254l4.52921,-24.659s-26.16878,113.7335 -23.14931,126.81789s25.16229,33.21422 28.18176,34.22071s31.20124,-86.55827 31.20124,-86.55827l-40.7629,-49.82133z" opacity="0.1" id="svg_35"/>
  <path d="m305.06129,273.65403l-17.11035,3.01947s-26.16878,113.73354 -23.14931,126.81793s25.16229,33.21422 28.18176,34.22071s31.20124,-86.55827 31.20124,-86.55827l-19.12334,-77.49984z" fill="#d0cde1" id="svg_36"/>
  <path d="m495.79142,307.37149l8.55518,-16.60711s12.0779,113.73354 4.026,124.805s-39.90294,15.21422 -39.90294,15.21422l-0.35672,-82.64915l27.67848,-40.76296z" opacity="0.1" id="svg_37"/>
  <path d="m497.30116,277.67999l13.08439,13.08439s12.0779,113.73354 4.026,124.805s-39.90294,15.21422 -39.90294,15.21422l-0.35672,-82.64915l23.14927,-70.45446z" fill="#d0cde1" id="svg_38"/>
  <path d="m302.04182,450.79653s-29.18826,-11.07141 -34.22071,10.06491s12.07789,115.74652 12.07789,115.74652s11.07141,71.46089 18.11685,73.47388s38.24668,3.01947 43.27913,-6.03895s-15.09737,-101.65564 -15.09737,-101.65564l116.753,-2.013s-7.04544,80.51931 -11.0714,87.56475s-4.026,31.20124 0,31.20124s48.31159,-2.013 51.33106,-8.05193s20.12983,-141.9153 20.12983,-141.9153s14.09088,-47.3051 -2.013,-44.28562s-199.28528,-14.09086 -199.28528,-14.09086z" fill="#3f3d56" id="svg_39"/>
  <path d="m474.15186,647.06236s10.06491,-7.04544 15.09737,0s7.04544,15.09737 -15.09737,27.17527s-39.25317,9.05843 -39.25317,7.04544l0,-29.18825l39.25317,-5.03246z" fill="#2f2e41" id="svg_40"/>
  <path d="m300.02883,644.04289s-10.06491,-7.04544 -15.09737,0s-7.04546,15.09737 15.09737,27.17524s39.25317,9.05842 39.25317,7.04544l0,-29.18822l-39.25317,-5.03246z" fill="#2f2e41" id="svg_41"/>
  <path d="m394.88706,107.66922a32.34794,32.34794 0 0 0 -11.23352,1.60112a43.42778,43.42778 0 0 0 -8.00273,4.2341l-16.88535,10.50019a7.90785,7.90785 0 0 0 -4.76623,7.37l-2.11,15.80182c-0.53248,3.98775 -1.02331,8.25232 0.7618,11.85776c1.49,3.00929 4.3314,5.06856 6.66782,7.4804a27.456,27.456 0 0 1 7.23648,14.06091c1.20795,6.59754 0.43461,14.5425 5.65567,18.75287c2.827,2.27972 6.6803,2.71095 10.30576,2.92289a153.78563,153.78563 0 0 0 29.70069,-1.14315a11.81912,11.81912 0 0 0 4.48748,-1.25739c1.775,-1.04988 2.89248,-2.90316 3.93692,-4.68137c3.77061,-6.41971 7.657,-13.24892 7.61606,-20.69395c-0.02026,-3.68318 -0.96268,-7.6389 0.8058,-10.8698a42.49668,42.49668 0 0 1 3.03759,-3.945c2.18963,-3.07677 2.61589,-7.03 2.97274,-10.7897c1.13978,-12.00866 -0.05177,-21.1472 -8.90224,-29.60633c-8.2618,-7.89646 -20.01732,-11.52269 -31.28474,-11.59537z" fill="#2f2e41" id="svg_42"/>
  <polygon points="300.937 569.703 267.346 740.458 284.141 740.458 316.333 572.503 300.937 569.703" fill="#2f2e41" id="svg_43"/>
  <polygon points="408.708 583.7 429.703 779.648 443.699 779.648 431.102 578.101 408.708 583.7" fill="#2f2e41" id="svg_44"/>
  <polygon points="466.093 578.101 495.485 708.267 509.481 708.267 481.489 575.302 466.093 578.101" fill="#2f2e41" id="svg_45"/>
  <polygon points="354.123 578.101 349.924 681.674 361.121 681.674 369.519 578.101 354.123 578.101" fill="#2f2e41" id="svg_46"/>
  <path d="m277.14312,551.50821s-22.394,-149.76023 40.58922,-153.95911s152.55948,0 152.55948,0s51.78625,-4.19889 36.39034,153.95911c0,0 13.99628,46.18773 -111.97026,41.98884s-117.56878,-41.98884 -117.56878,-41.98884z" fill="#00ff00" id="svg_47"/>
  <path d="m851,612.66507c0,26.1153 -15.52513,35.23378 -34.67635,35.23378s-34.67635,-9.11848 -34.67635,-35.23378s34.67635,-59.33808 34.67635,-59.33808s34.67635,33.22278 34.67635,59.33808z" fill="#00ff00" id="svg_48"/>
  <polygon points="815.416 622.048 830.195 595.009 815.471 618.619 815.631 608.792 825.817 589.229 815.673 606.191 815.96 588.516 826.868 572.942 816.005 585.737 816.185 553.327 815.106 594.394 804.06 577.487 814.972 597.859 813.939 617.599 813.908 617.075 801.123 599.212 813.869 618.926 813.74 621.395 813.717 621.432 813.728 621.635 811.106 647.977 814.609 647.977 815.029 645.849 827.744 626.182 815.06 643.904 815.416 622.048" fill="#3f3d56" id="svg_49"/>
  <polygon points="838.47 704.549 797.129 704.549 786.445 644.163 846.831 644.163 838.47 704.549" fill="#2f2e41" id="svg_50"/>
  <rect x="145" y="296.30047" width="86" height="100.82759" fill="#3f3d56" id="svg_51"/>
  <rect x="158.34483" y="311.94613" width="59.31034" height="69.53627" fill="#f2f2f2" id="svg_52"/>
  <path fill="#00ff00" stroke="null" stroke-width="null" stroke-opacity="null" d="m211.35816,347.00087c-1.6377,1.70175 -8.69047,3.86018 -9.60012,3.86018l-7.73114,0c-1.2831,0 -3.21546,0.23555 -4.12511,0.77556c0.1045,0.08653 0.209,0.17306 0.31007,0.26119c0.69894,0.60731 2.33322,1.46299 3.77906,1.46299c0.68009,0 1.23856,-0.18428 1.71308,-0.56725c2.01802,-1.61362 3.06642,-1.8027 3.67457,-1.8027c0.72121,0 1.34134,0.30926 1.70623,0.85088c0.68523,1.0031 0.18159,2.31546 -0.33234,3.3442c-1.22999,2.44206 -5.23861,5.08121 -9.5847,5.08121c-0.00343,0 -0.00343,0 -0.00685,0c-0.60644,0 -1.20088,-0.05288 -1.76962,-0.15864l0,5.2094c0,1.18898 1.76962,4.05887 7.13842,4.05887s6.77525,-5.93048 6.77525,-6.9512l0,-7.23002c3.82017,-1.87321 7.72943,-2.89233 9.60012,-6.24135c1.75934,-3.14711 0.08908,-3.65507 -1.54692,-1.95332zm-12.00871,7.57293c1.36361,-2.72247 -0.0908,-2.72247 -2.63815,-0.68101s-6.27845,0.16825 -7.55128,-0.93741c-1.27282,-1.10405 -2.54564,-1.95492 -4.82061,-1.87c-2.27498,0.08493 -7.64036,-0.25798 -10.7359,-0.9374c-3.09212,-0.68102 -8.38555,-4.80719 -8.82238,-3.7416c-0.45568,1.10566 0.36146,1.8716 2.00088,3.7416c1.63599,1.8732 8.6939,4.45146 8.6939,4.45146s0,5.53308 0,7.82932c0,2.29944 5.093,5.78466 7.72943,5.78466s4.63904,-1.70175 4.63904,-2.89393l0,-7.23002c4.36665,2.13119 10.14145,-0.79159 11.50507,-3.51567zm-2.74094,-6.07469c2.98762,0 5.41163,-2.26579 5.41163,-5.06037c0,-2.79619 -2.42401,-5.06198 -5.41163,-5.06198s-5.40992,2.26579 -5.40992,5.06198c0,2.79458 2.4223,5.06037 5.40992,5.06037zm-14.25799,0c2.98761,0 5.40991,-2.26579 5.40991,-5.06037c0,-2.79619 -2.4223,-5.06198 -5.40991,-5.06198c-2.98934,0 -5.41164,2.26579 -5.41164,5.06198c0,2.79458 2.42059,5.06037 5.41164,5.06037z" id="svg_55"/>
  <path fill="#f2f2f2" stroke="null" stroke-width="null" stroke-opacity="null" fill-opacity="null" opacity="0.5" d="m146.5,231" id="svg_56"/>
  <path id="svg_59" d="m178.08997,321.24429l-3.02447,1.00418l0,-2.0073l3.02447,1.00311zm-2.19602,-4.9466l-1.37788,2.7067l-1.52054,-1.42019l2.89843,-1.28651zm-5.29956,-2.04847l1.07538,2.82327l-2.15133,0l1.07595,-2.82327zm-5.30013,2.04847l2.89957,1.28651l-1.52112,1.42019l-1.37846,-2.7067zm-2.19545,4.9466l3.02504,-1.00311l0,2.0073l-3.02504,-1.00418zm2.19545,4.9466l1.37846,-2.70563l1.52112,1.41965l-2.89957,1.28598l0,0zm5.30013,2.05008l-1.07595,-2.8238l2.15133,0l-1.07538,2.8238zm5.29956,-2.05008l-2.899,-1.28544l1.52054,-1.41965l1.37846,2.7051zm-9.04706,-4.9466l0,0c0,-1.93137 1.6781,-3.49753 3.74808,-3.49753c2.06941,0 3.74808,1.56616 3.74808,3.49753c0,1.93191 -1.67867,3.49807 -3.74808,3.49807c-2.07055,0 -3.74808,-1.56616 -3.74808,-3.49807l0,0z" fill-opacity="null" stroke-opacity="null" stroke-width="1.5" stroke="null" fill="#00ff00"/>
  <path id="svg_60" d="m859.34345,345.35714l-0.02639,0.00939l0,-0.01877l0.02639,0.00938zm-0.01916,-0.04625l-0.01202,0.02531l-0.01327,-0.01328l0.02529,-0.01203zm-0.04625,-0.01915l0.00938,0.0264l-0.01877,0l0.00939,-0.0264zm-0.04625,0.01915l0.0253,0.01203l-0.01327,0.01328l-0.01203,-0.02531zm-0.01916,0.04625l0.0264,-0.00938l0,0.01877l-0.0264,-0.00939zm0.01916,0.04625l0.01203,-0.0253l0.01327,0.01327l-0.0253,0.01202l0,0zm0.04625,0.01917l-0.00939,-0.0264l0.01877,0l-0.00938,0.0264zm0.04625,-0.01917l-0.0253,-0.01202l0.01327,-0.01327l0.01203,0.02529zm-0.07895,-0.04625l0,0c0,-0.01806 0.01464,-0.0327 0.03271,-0.0327c0.01806,0 0.03271,0.01464 0.03271,0.0327c0,0.01806 -0.01465,0.03271 -0.03271,0.03271c-0.01807,0 -0.03271,-0.01464 -0.03271,-0.03271l0,0z" fill-opacity="null" stroke-opacity="null" stroke-width="1.5" stroke="null" fill="#00ff00"/>
  <rect stroke="null" id="svg_63" height="25.00087" width="115.00404" y="164.00576" x="572.50494" fill-opacity="null" stroke-opacity="null" stroke-width="1.5" fill="none"/>
  <text stroke="null" transform="matrix(10.740180458850546,0,0,0.9287464070233556,-6878.138720910873,20.357383886399212) " xml:space="preserve" text-anchor="start" font-family="Helvetica, Arial, sans-serif" font-size="24" id="svg_67" y="175.00615" x="692.50916" fill-opacity="null" stroke-opacity="null" stroke-width="0" fill="#000000"/>
  <text stroke="null" transform="matrix(10.452546082893832,0,0,1.0093308345506875,-6707.388317372651,16.998480138251562) " xml:space="preserve" text-anchor="start" font-family="Helvetica, Arial, sans-serif" font-size="24" id="svg_68" y="165.0058" x="695.50926" fill-opacity="null" stroke-opacity="null" stroke-width="0" fill="#000000"/>
  <text font-style="normal" font-weight="bold" stroke="null" transform="matrix(4.702090740203857,0,0,3.3273544311523438,-1627.0688803195953,-183.86100006103516) " xml:space="preserve" text-anchor="start" font-family="Helvetica, Arial, sans-serif" font-size="5" id="svg_72" y="109.24912" x="478.20781" stroke-width="null" fill="#00ff00">BEGIN</text>
 </g>
</svg>