<svg width="284" height="284" xmlns="http://www.w3.org/2000/svg" preserveAspectRatio="xMidYMid meet">
 <g>
  <title>background</title>
  <rect x="-1" y="-1" width="286" height="286" id="canvas_background" fill="none"/>
 </g>

 <g>
  <title>Layer 1</title>
  <circle id="oval2" fill="#f9f3ea" cx="141" cy="141" r="141"/>
  <g id="group" clip-path="url(#oval)">
   <clipPath id="oval">
    <circle cx="141" cy="141" r="141" id="svg_1"/>
   </clipPath>
   <g id="page1">
    <g id="layer_1">
     <g id="layer_1_1_">
      <path id="bezier2" fill="rgb(243, 197, 173)" d="m106.18,234.3c11.06,4.14 13.23,25.63 4.84,48.01c-8.38,22.38 -24.15,37.17 -35.2,33.03c-11.06,-4.14 -13.23,-25.64 -4.84,-48.01c8.38,-22.38 24.15,-37.17 35.2,-33.03zm0,0"/>
      <path id="bezier" fill="rgb(0, 0, 0)" d="m85.45,313.56l0,17.1l113.31,0l0,-17.1l-113.31,0zm0,0"/>
      <path id="bezier3" fill="rgb(102, 0, 102)" fill-opacity="0.3" d="m69.5,287.42c-1.68,-1.11 -1.74,-5.52 -0.23,-10.18c-0.17,0.38 -0.33,0.77 -0.48,1.17c-1.94,5.08 -2.03,10.18 -0.2,11.39c1.84,1.21 4.88,-1.93 6.82,-7.01c0.15,-0.41 0.29,-0.81 0.42,-1.21c-1.93,4.38 -4.65,6.95 -6.33,5.84l0,0zm0,0"/>
      <path id="bezier4" fill="rgb(243, 197, 173)" d="m171.82,222.3c-11.06,4.14 -13.23,25.63 -4.84,48.01c8.38,22.38 24.15,37.17 35.2,33.03c11.06,-4.14 13.23,-25.64 4.84,-48.01c-8.38,-22.38 -24.15,-37.17 -35.2,-33.03zm0,0"/>
      <path id="bezier5" fill="rgb(102, 0, 102)" fill-opacity="0.3" d="m195.56,296.25c-3.27,0 -5.95,-5.02 -6.36,-11.53c-0.04,0.56 -0.06,1.13 -0.06,1.71c0,7.32 2.87,13.25 6.41,13.25c3.54,0 6.42,-5.93 6.42,-13.25c0,-0.58 -0.03,-1.15 -0.07,-1.71c-0.4,6.5 -3.09,11.53 -6.34,11.53l0,0zm0,0"/>
      <path id="bezier6" fill="#00ff00" d="m209.45,248.39l-19.56,-27.77l-15.76,7.24l-1.4,-4.57l-62.91,0l-1.08,3.96l-14.42,-6.63l-19.56,27.77l24.99,11.48l-15.37,55.83l116.63,0l-17.02,-55.61l25.46,-11.7zm0,0"/>
      <path id="bezier7" fill="rgb(255, 255, 255)" d="m142.1,252.67c10.04,0 18.18,-8.13 18.18,-18.16c0,-10.03 -8.14,-18.16 -18.18,-18.16c-10.03,0 -18.17,8.13 -18.17,18.16c0,10.03 8.14,18.16 18.17,18.16zm0,0"/>
      <path id="bezier8" fill="rgb(213, 166, 145)" d="m142.07,249.4c8.25,0 14.93,-6.24 14.93,-13.93c0,-7.69 -6.68,-13.92 -14.93,-13.92c-8.25,0 -14.93,6.23 -14.93,13.92c0,7.69 6.68,13.93 14.93,13.93zm0,0"/>
      <path id="bezier9" fill="rgb(243, 197, 173)" d="m46.43,168.27c7.97,0 14.43,-6.46 14.43,-14.42c0,-7.97 -6.46,-14.43 -14.43,-14.43c-7.97,0 -14.43,6.46 -14.43,14.43c0,7.96 6.46,14.42 14.43,14.42zm0,0"/>
      <path id="bezier10" fill="rgb(243, 197, 173)" d="m234.57,168.27c7.97,0 14.43,-6.46 14.43,-14.42c0,-7.97 -6.46,-14.43 -14.43,-14.43c-7.97,0 -14.43,6.46 -14.43,14.43c0,7.96 6.46,14.42 14.43,14.42zm0,0"/>
      <path id="bezier11" fill="rgb(243, 197, 173)" d="m141.57,235.58c52.84,0 95.67,-33.49 95.67,-74.79c0,-41.3 -42.83,-74.78 -95.67,-74.78c-52.84,0 -95.67,33.48 -95.67,74.78c0,41.3 42.83,74.79 95.67,74.79zm0,0"/>
      <path id="bezier12" fill="#444040" d="m97.21,163.77c0,9.33 -7.42,-11.99 -16.57,-11.99c-9.15,0 -16.57,21.32 -16.57,11.99c0,-9.31 7.42,-16.87 16.57,-16.87c9.15,0 16.57,7.56 16.57,16.87l0,0zm0,0"/>
      <path id="bezier13" fill="#444040" d="m224.41,163.77c0,9.33 -7.42,-11.99 -16.57,-11.99c-9.15,0 -16.56,21.32 -16.56,11.99c0,-9.31 7.41,-16.87 16.56,-16.87c9.15,0 16.57,7.56 16.57,16.87l0,0zm0,0"/>
      <path id="bezier14" fill="#444040" d="m206.24,134.82c11.85,0 21.55,8.15 22.38,18.49c0.04,-0.47 0.07,-0.95 0.07,-1.43c0,-11.01 -10.05,-19.93 -22.45,-19.93c-12.39,0 -22.45,8.92 -22.45,19.93c0,0.48 0.03,0.96 0.07,1.43c0.83,-10.33 10.53,-18.49 22.38,-18.49l0,0zm0,0"/>
      <path id="bezier15" fill="#444040" d="m80.1,134.82c11.86,0 21.56,8.15 22.39,18.49c0.03,-0.47 0.06,-0.95 0.06,-1.43c0,-11.01 -10.05,-19.93 -22.45,-19.93c-12.39,0 -22.44,8.92 -22.44,19.93c0,0.48 0.02,0.96 0.06,1.43c0.83,-10.33 10.53,-18.49 22.38,-18.49l0,0zm0,0"/>
      <path id="bezier16" fill="#282828" d="m237.1,105.24c0.09,-1.03 0.14,-2.07 0.14,-3.11c0,-13.34 -7.55,-25.62 -20.21,-35.38c-1.53,-1.18 5.18,-14.96 3.51,-16.06c-1.42,-0.93 -11.21,10.79 -12.73,9.91c-0.73,-0.42 -1.48,-0.84 -2.23,-1.24c-2.78,-1.51 0.38,-17.92 -2.68,-19.23c-2.67,-1.14 -11.53,12.81 -14.4,11.83c-13.88,-4.7 -29.89,-7.39 -46.95,-7.39c-51.86,0 -94.07,24.81 -95.65,55.77l191.2,0l0,4.9l0,0l0,0zm0,0"/>
      <path id="bezier17" fill="#282828" d="m237.24,98.83l-191.22,0l-0.12,0l0,59.82c0,0 62.46,-19.72 83.27,-26.3c13.04,-4.12 52.13,-16.46 52.13,-16.46l55.94,42.76l0,-54.93l0,-4.89l0,0zm0,0"/>
      <path id="bezier18" fill="rgb(44, 39, 35)" d="m141.03,317.84l0,13.89l1.07,0l0,-13.89l-1.07,0zm0,0"/>
      <path id="bezier19" fill="rgb(102, 0, 102)" fill-opacity="0.3" d="m142.1,171.47c2.59,0 4.75,1.84 5.24,4.28c0.07,-0.35 0.11,-0.7 0.11,-1.07c0,-2.95 -2.39,-5.34 -5.35,-5.34c-2.95,0 -5.34,2.39 -5.34,5.34c0,0.37 0.04,0.72 0.11,1.07c0.49,-2.44 2.65,-4.28 5.23,-4.28l0,0zm0,0"/>
      <path id="bezier30" fill="rgb(44, 39, 35)" d="m74.22,336c2.66,0 4.81,-1.67 4.81,-3.74c0,-2.06 -2.15,-3.74 -4.81,-3.74c-2.65,0 -4.81,1.68 -4.81,3.74c0,2.07 2.16,3.74 4.81,3.74zm0,0"/>
      <path id="bezier31" fill="rgb(44, 39, 35)" d="m81.71,336c2.65,0 4.81,-1.67 4.81,-3.74c0,-2.06 -2.16,-3.74 -4.81,-3.74c-2.66,0 -4.81,1.68 -4.81,3.74c0,2.07 2.15,3.74 4.81,3.74zm0,0"/>
      <path id="bezier32" fill="rgb(44, 39, 35)" d="m89.19,336c2.66,0 4.81,-1.67 4.81,-3.74c0,-2.06 -2.15,-3.74 -4.81,-3.74c-2.66,0 -4.81,1.68 -4.81,3.74c0,2.07 2.15,3.74 4.81,3.74zm0,0"/>
      <path id="bezier33" fill="rgb(44, 39, 35)" d="m97.74,336c2.66,0 4.81,-1.67 4.81,-3.74c0,-2.06 -2.15,-3.74 -4.81,-3.74c-2.66,0 -4.81,1.68 -4.81,3.74c0,2.07 2.15,3.74 4.81,3.74zm0,0"/>
      <path id="bezier34" fill="rgb(44, 39, 35)" d="m105.22,336c2.66,0 4.81,-1.67 4.81,-3.74c0,-2.06 -2.15,-3.74 -4.81,-3.74c-2.65,0 -4.81,1.68 -4.81,3.74c0,2.07 2.16,3.74 4.81,3.74zm0,0"/>
      <path id="bezier35" fill="rgb(44, 39, 35)" d="m112.71,336c2.65,0 4.81,-1.67 4.81,-3.74c0,-2.06 -2.16,-3.74 -4.81,-3.74c-2.66,0 -4.81,1.68 -4.81,3.74c0,2.07 2.15,3.74 4.81,3.74zm0,0"/>
      <path id="bezier36" fill="rgb(44, 39, 35)" d="m121.26,336c2.66,0 4.81,-1.67 4.81,-3.74c0,-2.06 -2.15,-3.74 -4.81,-3.74c-2.66,0 -4.81,1.68 -4.81,3.74c0,2.07 2.15,3.74 4.81,3.74zm0,0"/>
      <path id="bezier37" fill="rgb(44, 39, 35)" d="m128.74,336c2.66,0 4.81,-1.67 4.81,-3.74c0,-2.06 -2.15,-3.74 -4.81,-3.74c-2.66,0 -4.81,1.68 -4.81,3.74c0,2.07 2.15,3.74 4.81,3.74zm0,0"/>
      <path id="bezier38" fill="rgb(44, 39, 35)" d="m136.22,336c2.66,0 4.81,-1.67 4.81,-3.74c0,-2.06 -2.15,-3.74 -4.81,-3.74c-2.65,0 -4.81,1.68 -4.81,3.74c0,2.07 2.16,3.74 4.81,3.74zm0,0"/>
      <path id="bezier39" fill="rgb(44, 39, 35)" d="m146.91,336c2.66,0 4.81,-1.67 4.81,-3.74c0,-2.06 -2.15,-3.74 -4.81,-3.74c-2.65,0 -4.81,1.68 -4.81,3.74c0,2.07 2.16,3.74 4.81,3.74zm0,0"/>
      <path id="bezier40" fill="rgb(44, 39, 35)" d="m154.4,336c2.65,0 4.81,-1.67 4.81,-3.74c0,-2.06 -2.16,-3.74 -4.81,-3.74c-2.66,0 -4.81,1.68 -4.81,3.74c0,2.07 2.15,3.74 4.81,3.74zm0,0"/>
      <path id="bezier41" fill="rgb(44, 39, 35)" d="m161.88,336c2.66,0 4.81,-1.67 4.81,-3.74c0,-2.06 -2.15,-3.74 -4.81,-3.74c-2.66,0 -4.81,1.68 -4.81,3.74c0,2.07 2.15,3.74 4.81,3.74zm0,0"/>
      <path id="bezier42" fill="rgb(44, 39, 35)" d="m170.43,336c2.66,0 4.81,-1.67 4.81,-3.74c0,-2.06 -2.15,-3.74 -4.81,-3.74c-2.66,0 -4.81,1.68 -4.81,3.74c0,2.07 2.15,3.74 4.81,3.74zm0,0"/>
      <path id="bezier43" fill="rgb(44, 39, 35)" d="m177.91,336c2.66,0 4.81,-1.67 4.81,-3.74c0,-2.06 -2.15,-3.74 -4.81,-3.74c-2.65,0 -4.81,1.68 -4.81,3.74c0,2.07 2.16,3.74 4.81,3.74zm0,0"/>
      <path id="bezier44" fill="rgb(44, 39, 35)" d="m185.4,336c2.65,0 4.81,-1.67 4.81,-3.74c0,-2.06 -2.16,-3.74 -4.81,-3.74c-2.66,0 -4.81,1.68 -4.81,3.74c0,2.07 2.15,3.74 4.81,3.74zm0,0"/>
      <path id="bezier45" fill="rgb(44, 39, 35)" d="m193.95,336c2.65,0 4.81,-1.67 4.81,-3.74c0,-2.06 -2.16,-3.74 -4.81,-3.74c-2.66,0 -4.81,1.68 -4.81,3.74c0,2.07 2.15,3.74 4.81,3.74zm0,0"/>
      <path id="bezier46" fill="rgb(44, 39, 35)" d="m201.43,336c2.66,0 4.81,-1.67 4.81,-3.74c0,-2.06 -2.15,-3.74 -4.81,-3.74c-2.66,0 -4.81,1.68 -4.81,3.74c0,2.07 2.15,3.74 4.81,3.74zm0,0"/>
      <path id="bezier47" fill="rgb(44, 39, 35)" d="m208.91,336c2.66,0 4.81,-1.67 4.81,-3.74c0,-2.06 -2.15,-3.74 -4.81,-3.74c-2.65,0 -4.81,1.68 -4.81,3.74c0,2.07 2.16,3.74 4.81,3.74zm0,0"/>
      <path id="bezier49" fill="rgb(255, 255, 255)" d="m105.76,317.84c-20.08,0 -36.35,6.69 -36.35,14.95l72.69,0c0,-8.26 -16.27,-14.95 -36.34,-14.95l0,0zm0,0"/>
      <path id="bezier50" fill="rgb(255, 255, 255)" d="m178.45,317.84c-20.07,0 -36.35,6.69 -36.35,14.95l72.69,0c0,-8.26 -16.27,-14.95 -36.34,-14.95l0,0zm0,0"/>
      <path id="bezier51" fill="rgb(241, 184, 156)" d="m69.88,268.97c-2.06,-2.88 -4.89,-4.38 -6.33,-3.35c-1.45,1.03 -0.94,4.2 1.12,7.07c2.06,2.88 4.9,4.38 6.34,3.36c1.44,-1.03 0.93,-4.2 -1.13,-7.08zm0,0"/>
     </g>
     <path id="bezier52" stroke="rgb(164, 134, 119)" stroke-width="3" stroke-miterlimit="4" fill="none" d="m173.1,199.81c0,6.76 -13.38,12.26 -29.93,12.26c-16.55,0 -29.93,-5.51 -29.93,-12.26c0,-6.81 13.38,-12.31 29.93,-12.31c16.55,0 29.93,5.5 29.93,12.31l0,0zm0,0"/>
     <path id="bezier53" fill="rgb(243, 197, 173)" d="m110.03,184.29l0,14.96l65.21,0l0,-14.96l-65.21,0zm0,0"/>
    </g>
   </g>
  </g>
  <path fill="#191919" stroke="null" stroke-width="null" stroke-opacity="null" d="m100.72739,211.51955l0,0c0,-0.41387 0.33551,-0.74938 0.74938,-0.74938l0,0c0.19875,0 0.38935,0.07895 0.52989,0.21949c0.14054,0.14054 0.21949,0.33114 0.21949,0.52989l0,0c0,0.41387 -0.33551,0.74938 -0.74938,0.74938l0,0c-0.41387,0 -0.74938,-0.33551 -0.74938,-0.74938zm0.74938,-0.74938l0,1.49876m-0.74938,-0.74938l1.49876,0" id="svg_5"/>
  <path fill="#191919" stroke="null" stroke-width="null" stroke-opacity="null" d="m480.10652,237.24778l0,0c0,-0.41145 0.33355,-0.745 0.745,-0.745l0,0c0.19759,0 0.38708,0.07849 0.52679,0.21821c0.13971,0.13971 0.21821,0.32921 0.21821,0.52679l0,0c0,0.41145 -0.33355,0.745 -0.745,0.745l0,0c-0.41145,0 -0.745,-0.33355 -0.745,-0.745zm0.745,-0.745l0,1.49m-0.745,-0.745l1.49,0" id="svg_6"/>
 </g>
</svg>